<svg id="Layer_1" enable-background="new 0 0 511.998 511.998" height="512" viewBox="0 0 511.998 511.998" width="512" xmlns="http://www.w3.org/2000/svg"><g><path clip-rule="evenodd" d="m27.999 334.51v-106h411.558c27.858 0 50.442 22.583 50.442 50.442v6.427c0 27.924-22.686 50.535-50.61 50.441z" fill="#fff4f4" fill-rule="evenodd"/><path clip-rule="evenodd" d="m471.001 373.488v106.001h-443.002v-106.5z" fill="#fff4f4" fill-rule="evenodd"/><g><path d="m496.995 504.489h-421.995c-41.355 0-75-33.645-75-75 0-19.967 7.82-38.783 22.021-52.983 14.199-14.198 33.012-22.017 52.974-22.017h.007l421.998.033c8.284.001 15 6.717 14.999 15.001s-6.716 14.999-15 14.999h-.001l-421.998-.033c-.001 0-.004 0-.005 0-11.95 0-23.228 4.698-31.761 13.23-8.534 8.534-13.234 19.816-13.234 31.77 0 24.813 20.187 45 45 45h421.995c8.284 0 15 6.716 15 15s-6.716 15-15 15z" fill="#fdbf00"/></g><g><path d="m441.999 201.51h-255.999l-25.767-28.468-34.233 28.468h-56c-8.284 0-15-6.716-15-15v-164c0-8.284 6.716-15 15-15h55.999l34.233 30.724 25.768-30.724h255.999c8.284 0 15 6.716 15 15v164c0 8.284-6.716 15-15 15z" fill="#00317e"/></g><path clip-rule="evenodd" d="m125.999 7.51h60v194.001h-60z" fill="#fdbf00" fill-rule="evenodd"/><path clip-rule="evenodd" d="m439.557 228.51h-183.762v106.726l183.594.584c27.924.093 50.61-22.517 50.61-50.441v-6.427c0-27.859-22.583-50.442-50.442-50.442z" fill="#f6efea" fill-rule="evenodd"/><path d="m441.999 7.51h-186.204v194h186.204c8.284 0 15-6.716 15-15v-164c0-8.285-6.716-15-15-15z" fill="#001035"/><g><g><path d="m436 354.509h-420.999c-8.284 0-15-6.716-15-15s6.716-15 15-15h420.999c14.472 0 25.964-4.744 34.157-14.101 7.266-8.296 11.433-20.105 11.433-32.399 0-23.145-14.097-46.5-45.59-46.5h-420.999c-8.284 0-15-6.716-15-15s6.716-15 15-15h420.999c49.625 0 75.59 38.484 75.59 76.5s-25.965 76.5-75.59 76.5z" fill="#bee75e"/></g></g><path d="m436 201.51h-180.205v30h180.205c31.493 0 45.59 23.354 45.59 46.5 0 12.294-4.167 24.103-11.433 32.399-8.193 9.357-19.686 14.101-34.157 14.101h-180.205v30h180.205c49.625 0 75.59-38.484 75.59-76.5s-25.965-76.5-75.59-76.5z" fill="#00cb75"/><path clip-rule="evenodd" d="m255.795 373.246v106.243h215.206v-106.001z" fill="#f6efea" fill-rule="evenodd"/><g fill="#ff8856"><path d="m255.795 384.503 241.202.019h.001c8.284 0 14.999-6.715 15-14.999s-6.715-15-14.999-15.001l-241.204-.019z"/><path d="m496.995 474.489h-241.2v30h241.2c8.284 0 15-6.716 15-15s-6.716-15-15-15z"/></g><g><path d="m377.999 372.01c-1.593 0-3.193-.253-4.742-.77l-25.257-8.418-25.257 8.418c-4.574 1.526-9.603.758-13.514-2.062s-6.229-7.346-6.229-12.168v-79c0-8.284 6.716-15 15-15h60c8.284 0 15 6.716 15 15v79c0 4.822-2.318 9.349-6.229 12.168-2.587 1.865-5.663 2.832-8.772 2.832z" fill="#c09"/></g></g></svg>